<svg width="1011" height="1011" viewBox="0 0 1011 1011" fill="none" xmlns="http://www.w3.org/2000/svg">
<rect width="1011" height="1011" rx="143" fill="#015DC4"/>
<path d="M418.759 269.595L430.384 291.898L439.882 289.356V692.493H418.759V269.595Z" fill="white"/>
<path d="M646.987 694.404V673.28H417.803V694.404H646.987Z" fill="white"/>
<path d="M625.864 694.405H646.987V478.041H625.864V694.405Z" fill="white"/>
<path d="M646.987 499.165V478.041H522.477V499.165H646.987Z" fill="white"/>
<path d="M729.095 614.857V593.733H522.476V614.857H729.095Z" fill="white"/>
<path d="M505.956 614.857V593.733H293.844V614.857H505.956Z" fill="white"/>
<path d="M522.477 614.857H543.6V478.04H522.477V614.857Z" fill="white"/>
<path d="M707.971 614.857H729.095V451.545H707.971V614.857Z" fill="white"/>
<path d="M484.833 614.857H505.956V353.26H484.833V614.857Z" fill="white"/>
<path d="M314.968 614.857H293.844V468.337L299.75 459.964L314.968 453.32V614.857Z" fill="white"/>
<path d="M510.795 330.666L233.305 490.875L243.866 509.168L531.202 343.277L510.795 330.666Z" fill="white"/>
<path d="M418.759 269.595L422.829 293.629L423.379 296.654L774.438 499.338L785 481.044L418.759 269.595Z" fill="white"/>
</svg>
